<svg xmlns="http://www.w3.org/2000/svg" xml:space="preserve" id="Capa_1" x="0" y="0" style="enable-background:new 0 0 1000 1000" version="1.1" viewBox="0 0 1000 1000"><style>.st1,.st2{fill:none;stroke:#fff;stroke-width:4.682;stroke-miterlimit:10}.st2{stroke-width:3.2873}.st3{fill:#fff}.st4{fill:none;stroke:#fff;stroke-width:4.9997;stroke-miterlimit:10}</style><path d="M235.8 946.6s151-170.4 376.2-136.8" class="st1"/><path d="M219.6 902.2s151-170.4 376.2-136.8" class="st1"/><path d="M161.9 612.7s122.6-117.9 292.3-106.3" class="st2"/><path d="M158.6 603.7s122.6-117.9 292.3-106.3" class="st2"/><path d="M152.7 587.2S275.3 469.3 445 480.9" class="st2"/><path d="M149.4 578.2S272 460.3 441.7 471.9" class="st2"/><path d="M146.1 569.2s122.6-117.9 292.3-106.3M180.5 664s122.6-117.9 292.3-106.3" class="st2"/><path d="M177.2 655s122.6-117.9 292.3-106.3" class="st2"/><path d="M173.9 646s122.6-117.9 292.3-106.3" class="st2"/><path d="M171.2 638.6s122.6-117.9 292.3-106.3" class="st2"/><path d="M167.9 629.5s122.6-117.9 292.3-106.3" class="st2"/><path d="M164.7 620.5S287.3 502.6 457 514.2M193 698.3S315.6 580.4 485.3 592" class="st2"/><path d="M189.7 689.3S312.3 571.4 482 583" class="st2"/><path d="M186.5 680.3S309.1 562.4 478.8 574" class="st2"/><path d="M183.8 672.9S306.4 555 476.1 566.6M211.6 749.6s122.6-117.9 292.3-106.3" class="st2"/><path d="M208.3 740.6s122.6-117.9 292.3-106.3" class="st2"/><path d="M205.1 731.6s122.6-117.9 292.3-106.3" class="st2"/><path d="M199.1 715.1s122.6-117.9 292.3-106.3" class="st2"/><path d="M195.8 706.1s122.6-117.9 292.3-106.3M143.1 561.1s122.6-117.9 292.3-106.3" class="st2"/><path d="M139.8 552.1s122.6-117.9 292.3-106.3" class="st2"/><path d="M136.6 543.1s122.6-117.9 292.3-106.3" class="st2"/><path d="M133.9 535.7s122.6-117.9 292.3-106.3" class="st2"/><path d="M130.6 526.6s122.6-117.9 292.3-106.3" class="st2"/><path d="M127.3 517.6s122.6-117.9 292.3-106.3" class="st2"/><path d="M124.1 508.9S246.7 391 416.4 402.6" class="st2"/><path d="M120.8 499.8s122.6-117.9 292.3-106.3" class="st2"/><path d="M117.6 490.9S240.2 373 409.9 384.6" class="st2"/><path d="M114.9 483.4s122.6-117.9 292.3-106.3" class="st2"/><path d="M111.6 474.4s122.6-117.9 292.3-106.3" class="st2"/><path d="M108.3 465.4s122.6-117.9 292.3-106.3" class="st2"/><path d="M105.4 457.3S228 339.4 397.7 351" class="st2"/><path d="M13.7 335.5s151-170.4 376.2-136.8" class="st1"/><path d="M96.1 431.8s122.6-117.9 292.3-106.3" class="st2"/><path d="M92.8 422.8s122.6-117.9 292.3-106.3" class="st2"/><path d="M89.5 413.8s122.6-117.9 292.3-106.3" class="st2"/><path d="M351.4 784.1c3.9-2.6 8.3-5.1 12.3-7.1 10.2-5.3 20.9-9.7 32-12.8 7.6-2.2 15.3-3.7 23.2-4.6 3.1-.3 2.7-5.1-.4-4.8-23.1 2.4-45.7 10.9-65.6 22.8-1.4.9-2.9 1.7-4.3 2.7-2.5 1.6.3 5.5 2.8 3.8z" class="st3"/><path d="M98.8 439.9S221.4 322 391.1 333.6" class="st2"/><path d="M131.7 296.1c2.4-1.5 4.8-3 7.2-4.4 2.8-1.7 5.7-3.3 8.6-4.8.8-.4 1.6-.9 2.4-1.3.5-.2.9-.5 1.4-.7.2-.1.5-.3.7-.4.2-.1 1.3-.7.4-.2l.2-.1c.2-.1.5-.3.8-.4.5-.3 1-.5 1.5-.8 1.1-.5 2.1-1.1 3.2-1.6 22.1-11.1 45.3-20.3 69.1-27.1 4-1.1 8-2.2 12-3.2 2-.5 4-1 6-1.4.5-.1.9-.2 1.4-.3 1.2-.3-.5.1.6-.1s2.2-.5 3.3-.7c8.5-1.7 17.1-3.1 25.7-4.1 2.6-.3 4.9-2.6 4.6-5.4-.3-2.6-2.6-4.9-5.4-4.6-29.5 3.3-58.4 11.2-86 22-18.7 7.3-37 16-54.5 26-3.1 1.8-6.2 3.6-9.1 5.5-2.2 1.4-2.8 4.9-1.2 7 1.8 2.1 4.7 2.6 7.1 1.1z" class="st3"/><path d="M128.3 286.7c2.4-1.5 4.8-3 7.2-4.4 2.8-1.7 5.7-3.3 8.6-4.8.8-.4 1.6-.9 2.4-1.3.5-.2.9-.5 1.4-.7.2-.1.5-.3.7-.4.2-.1 1.3-.7.4-.2l.2-.1c.2-.1.5-.3.8-.4.5-.3 1-.5 1.5-.8 1.1-.5 2.1-1.1 3.2-1.6 22.1-11.1 45.3-20.3 69.1-27.1 4-1.1 8-2.2 12-3.2 2-.5 4-1 6-1.4.5-.1.9-.2 1.4-.3 1.2-.3-.5.1.6-.1s2.2-.5 3.3-.7c8.5-1.7 17.1-3.1 25.7-4.1 2.6-.3 4.9-2.6 4.6-5.4-.3-2.6-2.6-4.9-5.4-4.6-29.5 3.3-58.4 11.2-86 22-18.7 7.3-37 16-54.5 26-3.1 1.8-6.2 3.6-9.1 5.5-2.2 1.4-2.8 4.9-1.2 7 1.8 2.1 4.7 2.6 7.1 1.1z" class="st3"/><path d="M128.6 287.6c2.4-1.5 4.8-3 7.2-4.4 2.8-1.7 5.7-3.3 8.6-4.8.8-.4 1.6-.9 2.4-1.3.5-.2.9-.5 1.4-.7.2-.1.5-.3.7-.4.2-.1 1.3-.7.4-.2l.2-.1c.2-.1.5-.3.8-.4.5-.3 1-.5 1.5-.8 1.1-.5 2.1-1.1 3.2-1.6 22.1-11.1 45.3-20.3 69.1-27.1 4-1.1 8-2.2 12-3.2 2-.5 4-1 6-1.4.5-.1.9-.2 1.4-.3 1.2-.3-.5.1.6-.1s2.2-.5 3.3-.7c8.5-1.7 17.1-3.1 25.7-4.1 2.6-.3 4.9-2.6 4.6-5.4-.3-2.6-2.6-4.9-5.4-4.6-29.5 3.3-58.4 11.2-86 22-18.7 7.3-37 16-54.5 26-3.1 1.8-6.2 3.6-9.1 5.5-2.2 1.4-2.8 4.9-1.2 7 1.9 2.2 4.8 2.7 7.1 1.1z" class="st3"/><path d="M129 288.6c2.4-1.5 4.8-3 7.2-4.4 2.8-1.7 5.7-3.3 8.6-4.8.8-.4 1.6-.9 2.4-1.3.5-.2.9-.5 1.4-.7.2-.1.5-.3.7-.4.2-.1 1.3-.7.4-.2l.2-.1c.2-.1.5-.3.8-.4.5-.3 1-.5 1.5-.8 1.1-.5 2.1-1.1 3.2-1.6 22.1-11.1 45.3-20.3 69.1-27.1 4-1.1 8-2.2 12-3.2 2-.5 4-1 6-1.4.5-.1.9-.2 1.4-.3 1.2-.3-.5.1.6-.1s2.2-.5 3.3-.7c8.5-1.7 17.1-3.1 25.7-4.1 2.6-.3 4.9-2.6 4.6-5.4-.3-2.6-2.6-4.9-5.4-4.6-29.5 3.3-58.4 11.2-86 22-18.7 7.3-37 16-54.5 26-3.1 1.8-6.2 3.6-9.1 5.5-2.2 1.4-2.8 4.9-1.2 7 1.8 2.1 4.7 2.6 7.1 1.1z" class="st3"/><path d="M129.3 289.5c2.4-1.5 4.8-3 7.2-4.4 2.8-1.7 5.7-3.3 8.6-4.8.8-.4 1.6-.9 2.4-1.3.5-.2.9-.5 1.4-.7.2-.1.5-.3.7-.4.2-.1 1.3-.7.4-.2l.2-.1c.2-.1.5-.3.8-.4.5-.3 1-.5 1.5-.8 1.1-.5 2.1-1.1 3.2-1.6 22.1-11.1 45.3-20.3 69.1-27.1 4-1.1 8-2.2 12-3.2 2-.5 4-1 6-1.4.5-.1.9-.2 1.4-.3 1.2-.3-.5.1.6-.1s2.2-.5 3.3-.7c8.5-1.7 17.1-3.1 25.7-4.1 2.6-.3 4.9-2.6 4.6-5.4-.3-2.6-2.6-4.9-5.4-4.6-29.5 3.3-58.4 11.2-86 22-18.7 7.3-37 16-54.5 26-3.1 1.8-6.2 3.6-9.1 5.5-2.2 1.4-2.8 4.9-1.2 7 1.8 2.1 4.7 2.6 7.1 1.1z" class="st3"/><path d="M129.6 290.5c2.4-1.5 4.8-3 7.2-4.4 2.8-1.7 5.7-3.3 8.6-4.8.8-.4 1.6-.9 2.4-1.3.5-.2.9-.5 1.4-.7.2-.1.5-.3.7-.4.2-.1 1.3-.7.4-.2l.2-.1c.2-.1.5-.3.8-.4.5-.3 1-.5 1.5-.8 1.1-.5 2.1-1.1 3.2-1.6 22.1-11.1 45.3-20.3 69.1-27.1 4-1.1 8-2.2 12-3.2 2-.5 4-1 6-1.4.5-.1.9-.2 1.4-.3 1.2-.3-.5.1.6-.1s2.2-.5 3.3-.7c8.5-1.7 17.1-3.1 25.7-4.1 2.6-.3 4.9-2.6 4.6-5.4-.3-2.6-2.6-4.9-5.4-4.6-29.5 3.3-58.4 11.2-86 22-18.7 7.3-37 16-54.5 26-3.1 1.8-6.2 3.6-9.1 5.5-2.2 1.4-2.8 4.9-1.2 7 1.9 2.1 4.8 2.6 7.1 1.1z" class="st3"/><path d="M130 291.4c2.4-1.5 4.8-3 7.2-4.4 2.8-1.7 5.7-3.3 8.6-4.8.8-.4 1.6-.9 2.4-1.3.5-.2.9-.5 1.4-.7.2-.1.5-.3.7-.4.2-.1 1.3-.7.4-.2l.2-.1c.2-.1.5-.3.8-.4.5-.3 1-.5 1.5-.8 1.1-.5 2.1-1.1 3.2-1.6 22.1-11.1 45.3-20.3 69.1-27.1 4-1.1 8-2.2 12-3.2 2-.5 4-1 6-1.4.5-.1.9-.2 1.4-.3 1.2-.3-.5.1.6-.1s2.2-.5 3.3-.7c8.5-1.7 17.1-3.1 25.7-4.1 2.6-.3 4.9-2.6 4.6-5.4-.3-2.6-2.6-4.9-5.4-4.6-29.5 3.3-58.4 11.2-86 22-18.7 7.3-37 16-54.5 26-3.1 1.8-6.2 3.6-9.1 5.5-2.2 1.4-2.8 4.9-1.2 7 1.8 2.1 4.7 2.6 7.1 1.1z" class="st3"/><path d="M130.3 292.3c2.4-1.5 4.8-3 7.2-4.4 2.8-1.7 5.7-3.3 8.6-4.8.8-.4 1.6-.9 2.4-1.3.5-.2.9-.5 1.4-.7.2-.1.5-.3.7-.4.2-.1 1.3-.7.4-.2l.2-.1c.2-.1.5-.3.8-.4.5-.3 1-.5 1.5-.8 1.1-.5 2.1-1.1 3.2-1.6 22.1-11.1 45.3-20.3 69.1-27.1 4-1.1 8-2.2 12-3.2 2-.5 4-1 6-1.4.5-.1.9-.2 1.4-.3 1.2-.3-.5.1.6-.1s2.2-.5 3.3-.7c8.5-1.7 17.1-3.1 25.7-4.1 2.6-.3 4.9-2.6 4.6-5.4-.3-2.6-2.6-4.9-5.4-4.6-29.5 3.3-58.4 11.2-86 22-18.7 7.3-37 16-54.5 26-3.1 1.8-6.2 3.6-9.1 5.5-2.2 1.4-2.8 4.9-1.2 7 1.9 2.2 4.8 2.7 7.1 1.1z" class="st3"/><path d="M130.6 293.3c2.4-1.5 4.8-3 7.2-4.4 2.8-1.7 5.7-3.3 8.6-4.8.8-.4 1.6-.9 2.4-1.3.5-.2.9-.5 1.4-.7.2-.1.5-.3.7-.4.2-.1 1.3-.7.4-.2l.2-.1c.2-.1.5-.3.8-.4.5-.3 1-.5 1.5-.8 1.1-.5 2.1-1.1 3.2-1.6 22.1-11.1 45.3-20.3 69.1-27.1 4-1.1 8-2.2 12-3.2 2-.5 4-1 6-1.4.5-.1.9-.2 1.4-.3 1.2-.3-.5.1.6-.1s2.2-.5 3.3-.7c8.5-1.7 17.1-3.1 25.7-4.1 2.6-.3 4.9-2.6 4.6-5.4-.3-2.6-2.6-4.9-5.4-4.6-29.5 3.3-58.4 11.2-86 22-18.7 7.3-37 16-54.5 26-3.1 1.8-6.2 3.6-9.1 5.5-2.2 1.4-2.8 4.9-1.2 7 1.9 2.1 4.8 2.6 7.1 1.1z" class="st3"/><path d="M131 294.2c2.4-1.5 4.8-3 7.2-4.4 2.8-1.7 5.7-3.3 8.6-4.8.8-.4 1.6-.9 2.4-1.3.5-.2.9-.5 1.4-.7.2-.1.5-.3.7-.4.2-.1 1.3-.7.4-.2l.2-.1c.2-.1.5-.3.8-.4.5-.3 1-.5 1.5-.8 1.1-.5 2.1-1.1 3.2-1.6 22.1-11.1 45.3-20.3 69.1-27.1 4-1.1 8-2.2 12-3.2 2-.5 4-1 6-1.4.5-.1.9-.2 1.4-.3 1.2-.3-.5.1.6-.1s2.2-.5 3.3-.7c8.5-1.7 17.1-3.1 25.7-4.1 2.6-.3 4.9-2.6 4.6-5.4-.3-2.6-2.6-4.9-5.4-4.6-29.5 3.3-58.4 11.2-86 22-18.7 7.3-37 16-54.5 26-3.1 1.8-6.2 3.6-9.1 5.5-2.2 1.4-2.8 4.9-1.2 7 1.8 2.2 4.7 2.6 7.1 1.1z" class="st3"/><path d="M131.3 295.2c2.4-1.5 4.8-3 7.2-4.4 2.8-1.7 5.7-3.3 8.6-4.8.8-.4 1.6-.9 2.4-1.3.5-.2.9-.5 1.4-.7.2-.1.5-.3.7-.4.2-.1 1.3-.7.4-.2l.2-.1c.2-.1.5-.3.8-.4.5-.3 1-.5 1.5-.8 1.1-.5 2.1-1.1 3.2-1.6 22.1-11.1 45.3-20.3 69.1-27.1 4-1.1 8-2.2 12-3.2 2-.5 4-1 6-1.4.5-.1.9-.2 1.4-.3 1.2-.3-.5.1.6-.1s2.2-.5 3.3-.7c8.5-1.7 17.1-3.1 25.7-4.1 2.6-.3 4.9-2.6 4.6-5.4-.3-2.6-2.6-4.9-5.4-4.6-29.5 3.3-58.4 11.2-86 22-18.7 7.3-37 16-54.5 26-3.1 1.8-6.2 3.6-9.1 5.5-2.2 1.4-2.8 4.9-1.2 7 1.9 2.1 4.8 2.6 7.1 1.1z" class="st3"/><path d="M235.5 948.9 11.7 334.2" class="st4"/><path d="M986.5 673.4s-225.2-33.5-376.1 137" class="st1"/><path d="M970.4 628.9s-225.2-33.5-376.1 137" class="st1"/><path d="M828.5 370.1s-169.7-11.5-292.2 106.5" class="st2"/><path d="M825.2 361S655.5 349.5 533 467.5" class="st2"/><path d="M822 352s-169.7-11.5-292.2 106.5" class="st2"/><path d="M819.3 344.6s-169.7-11.5-292.2 106.5" class="st2"/><path d="M816 335.5S646.3 324 523.8 442" class="st2"/><path d="M812.7 326.6S643 315.1 520.5 433.1M844 412.3s-169.7-11.5-292.2 106.5" class="st2"/><path d="M840.7 403.3S671 391.8 548.5 509.8" class="st2"/><path d="M838 395.9s-169.7-11.5-292.2 106.5" class="st2"/><path d="M834.7 386.8S665 375.3 542.5 493.3" class="st2"/><path d="M831.4 377.8s-169.7-11.5-292.2 106.5M859.7 455.7S690 444.2 567.5 562.2" class="st2"/><path d="M856.4 446.6s-169.7-11.5-292.2 106.5" class="st2"/><path d="M853.2 437.6S683.5 426.1 561 544.1" class="st2"/><path d="M850.5 430.2s-169.7-11.5-292.2 106.5M878.5 506.9s-169.7-11.5-292.2 106.5" class="st2"/><path d="M875.2 497.8S705.5 486.3 583 604.3" class="st2"/><path d="M871.9 488.9s-169.7-11.5-292.2 106.5" class="st2"/><path d="M869.2 481.4S699.5 469.9 577 587.9" class="st2"/><path d="M865.9 472.4s-169.7-11.5-292.2 106.5" class="st2"/><path d="M862.6 463.4s-169.7-11.5-292.2 106.5M809.7 318.5S640 307 517.5 425" class="st2"/><path d="M806.4 309.4s-169.7-11.5-292.2 106.5" class="st2"/><path d="M803.2 300.5S633.5 289 511 407" class="st2"/><path d="M800.5 293s-169.7-11.5-292.2 106.5" class="st2"/><path d="M797.2 284S627.5 272.5 505 390.5" class="st2"/><path d="M790.7 266.3S621 254.8 498.5 372.8" class="st2"/><path d="M787.4 257.2s-169.7-11.5-292.2 106.5" class="st2"/><path d="M784.2 248.2S614.5 236.7 492 354.7" class="st2"/><path d="M781.5 240.8s-169.7-11.5-292.2 106.5" class="st2"/><path d="M778.2 231.7S608.5 220.2 486 338.2" class="st2"/><path d="M774.9 222.8s-169.7-11.5-292.2 106.5" class="st2"/><path d="M772 214.7s-169.7-11.5-292.2 106.5" class="st2"/><path d="M768.7 205.6S599 194.1 476.5 312.1" class="st2"/><path d="M763.9 62.4s-225.2-33.5-376.1 137" class="st1"/><path d="M762.7 189.2S593 177.7 470.5 295.7" class="st2"/><path d="M759.4 180.1s-169.7-11.5-292.2 106.5" class="st2"/><path d="M756.1 171.2s-169.7-11.5-292.2 106.5" class="st2"/><path d="M793.1 618.3c-5.1.5-10.2 1.6-15.1 2.7-11.5 2.6-22.8 6.2-33.6 11-7.4 3.3-14.5 7.2-21.2 11.7-2.6 1.7.2 5.7 2.8 3.9 18.6-12.6 40.7-20.4 62.6-23.9 1.6-.3 3.3-.5 4.9-.7 3.1-.2 2.7-5-.4-4.7z" class="st3"/><path d="M765.8 197.1s-169.7-11.5-292.2 106.5" class="st2"/><path d="M647.4 98.1c-10.9 1.3-21.7 3.7-32.4 6.3-24.3 5.8-48.2 13.7-71 23.9-15.8 7.1-31.2 15.4-45.7 25-2.2 1.4-2.8 4.9-1.2 7 1.7 2.2 4.6 2.7 7 1.2 6.4-4.3 13-8.3 19.8-12 1.7-.9 3.4-1.9 5.1-2.8.3-.1.6-.3.8-.4-1 .5.4-.2.5-.3l3-1.5c3.2-1.6 6.5-3.2 9.8-4.7 12.6-5.8 25.5-10.9 38.6-15.3 11-3.7 22.1-6.9 33.3-9.7 2.3-.6 4.6-1.1 6.9-1.6 1-.2 2-.5 3.1-.7-1.8.4.2 0 .6-.1.6-.1 1.2-.3 1.8-.4 3.4-.7 6.9-1.4 10.4-2 3.5-.6 6.9-1.2 10.4-1.7 2.6-.3 4.9-2.6 4.6-5.4-.4-2.8-2.6-5.1-5.4-4.8z" class="st3"/><path d="M643.9 88.7C633 90 622.2 92.4 611.5 95c-24.3 5.8-48.2 13.7-71 23.9-15.8 7.1-31.2 15.4-45.7 25-2.2 1.4-2.8 4.9-1.2 7 1.7 2.2 4.6 2.7 7 1.2 6.4-4.3 13-8.3 19.8-12 1.7-.9 3.4-1.9 5.1-2.8.3-.1.6-.3.8-.4-1 .5.4-.2.5-.3l3-1.5c3.2-1.6 6.5-3.2 9.8-4.7 12.6-5.8 25.5-10.9 38.6-15.3 11-3.7 22.1-6.9 33.3-9.7 2.3-.6 4.6-1.1 6.9-1.6 1-.2 2-.5 3.1-.7-1.8.4.2 0 .6-.1.6-.1 1.2-.3 1.8-.4 3.4-.7 6.9-1.4 10.4-2 3.5-.6 6.9-1.2 10.4-1.7 2.6-.3 4.9-2.6 4.6-5.4-.3-2.8-2.6-5.1-5.4-4.8z" class="st3"/><path d="M644.3 89.7c-10.9 1.3-21.7 3.7-32.4 6.3-24.3 5.8-48.2 13.7-71 23.9-15.8 7.1-31.2 15.4-45.7 25-2.2 1.4-2.8 4.9-1.2 7 1.7 2.2 4.6 2.7 7 1.2 6.4-4.3 13-8.3 19.8-12 1.7-.9 3.4-1.9 5.1-2.8.3-.1.6-.3.8-.4-1 .5.4-.2.5-.3l3-1.5c3.2-1.6 6.5-3.2 9.8-4.7 12.6-5.8 25.5-10.9 38.6-15.3 11-3.7 22.1-6.9 33.3-9.7 2.3-.6 4.6-1.1 6.9-1.6 1-.2 2-.5 3.1-.7-1.8.4.2 0 .6-.1.6-.1 1.2-.3 1.8-.4 3.4-.7 6.9-1.4 10.4-2 3.5-.6 6.9-1.2 10.4-1.7 2.6-.3 4.9-2.6 4.6-5.4-.4-2.8-2.7-5.2-5.4-4.8z" class="st3"/><path d="M644.6 90.6c-10.9 1.3-21.7 3.7-32.4 6.3-24.3 5.8-48.2 13.7-71 23.9-15.8 7.1-31.2 15.4-45.7 25-2.2 1.4-2.8 4.9-1.2 7 1.7 2.2 4.6 2.7 7 1.2 6.4-4.3 13-8.3 19.8-12 1.7-.9 3.4-1.9 5.1-2.8.3-.1.6-.3.8-.4-1 .5.4-.2.5-.3l3-1.5c3.2-1.6 6.5-3.2 9.8-4.7 12.6-5.8 25.5-10.9 38.6-15.3 11-3.7 22.1-6.9 33.3-9.7 2.3-.6 4.6-1.1 6.9-1.6 1-.2 2-.5 3.1-.7-1.8.4.2 0 .6-.1.6-.1 1.2-.3 1.8-.4 3.4-.7 6.9-1.4 10.4-2 3.5-.6 6.9-1.2 10.4-1.7 2.6-.3 4.9-2.6 4.6-5.4-.3-2.8-2.6-5.1-5.4-4.8z" class="st3"/><path d="M645 91.5c-10.9 1.3-21.7 3.7-32.4 6.3-24.3 5.8-48.2 13.7-71 23.9-15.8 7.1-31.2 15.4-45.7 25-2.2 1.4-2.8 4.9-1.2 7 1.7 2.2 4.6 2.7 7 1.2 6.4-4.3 13-8.3 19.8-12 1.7-.9 3.4-1.9 5.1-2.8.3-.1.6-.3.8-.4-1 .5.4-.2.5-.3l3-1.5c3.2-1.6 6.5-3.2 9.8-4.7 12.6-5.8 25.5-10.9 38.6-15.3 11-3.7 22.1-6.9 33.3-9.7 2.3-.6 4.6-1.1 6.9-1.6 1-.2 2-.5 3.1-.7-1.8.4.2 0 .6-.1.6-.1 1.2-.3 1.8-.4 3.4-.7 6.9-1.4 10.4-2 3.5-.6 6.9-1.2 10.4-1.7 2.6-.3 4.9-2.6 4.6-5.4-.4-2.8-2.7-5.1-5.4-4.8z" class="st3"/><path d="M645.3 92.5c-10.9 1.3-21.7 3.7-32.4 6.3-24.3 5.8-48.2 13.7-71 23.9-15.8 7.1-31.2 15.4-45.7 25-2.2 1.4-2.8 4.9-1.2 7 1.7 2.2 4.6 2.7 7 1.2 6.4-4.3 13-8.3 19.8-12 1.7-.9 3.4-1.9 5.1-2.8.3-.1.6-.3.8-.4-1 .5.4-.2.5-.3l3-1.5c3.2-1.6 6.5-3.2 9.8-4.7 12.6-5.8 25.5-10.9 38.6-15.3 11-3.7 22.1-6.9 33.3-9.7 2.3-.6 4.6-1.1 6.9-1.6 1-.2 2-.5 3.1-.7-1.8.4.2 0 .6-.1.6-.1 1.2-.3 1.8-.4 3.4-.7 6.9-1.4 10.4-2 3.5-.6 6.9-1.2 10.4-1.7 2.6-.3 4.9-2.6 4.6-5.4-.3-2.8-2.6-5.2-5.4-4.8z" class="st3"/><path d="M645.7 93.4c-10.9 1.3-21.7 3.7-32.4 6.3-24.3 5.8-48.2 13.7-71 23.9-15.8 7.1-31.2 15.4-45.7 25-2.2 1.4-2.8 4.9-1.2 7 1.7 2.2 4.6 2.7 7 1.2 6.4-4.3 13-8.3 19.8-12 1.7-.9 3.4-1.9 5.1-2.8.3-.1.6-.3.8-.4-1 .5.4-.2.5-.3l3-1.5c3.2-1.6 6.5-3.2 9.8-4.7 12.6-5.8 25.5-10.9 38.6-15.3 11-3.7 22.1-6.9 33.3-9.7 2.3-.6 4.6-1.1 6.9-1.6 1-.2 2-.5 3.1-.7-1.8.4.2 0 .6-.1.6-.1 1.2-.3 1.8-.4 3.4-.7 6.9-1.4 10.4-2 3.5-.6 6.9-1.2 10.4-1.7 2.6-.3 4.9-2.6 4.6-5.4-.4-2.8-2.7-5.1-5.4-4.8z" class="st3"/><path d="M646 94.4c-10.9 1.3-21.7 3.7-32.4 6.3-24.3 5.8-48.2 13.7-71 23.9-15.8 7.1-31.2 15.4-45.7 25-2.2 1.4-2.8 4.9-1.2 7 1.7 2.2 4.6 2.7 7 1.2 6.4-4.3 13-8.3 19.8-12 1.7-.9 3.4-1.9 5.1-2.8.3-.1.6-.3.8-.4-1 .5.4-.2.5-.3l3-1.5c3.2-1.6 6.5-3.2 9.8-4.7 12.6-5.8 25.5-10.9 38.6-15.3 11-3.7 22.1-6.9 33.3-9.7 2.3-.6 4.6-1.1 6.9-1.6 1-.2 2-.5 3.1-.7-1.8.4.2 0 .6-.1.6-.1 1.2-.3 1.8-.4 3.4-.7 6.9-1.4 10.4-2 3.5-.6 6.9-1.2 10.4-1.7 2.6-.3 4.9-2.6 4.6-5.4-.3-2.9-2.6-5.2-5.4-4.8z" class="st3"/><path d="M646.4 95.3c-10.9 1.3-21.7 3.7-32.4 6.3-24.3 5.8-48.2 13.7-71 23.9-15.8 7.1-31.2 15.4-45.7 25-2.2 1.4-2.8 4.9-1.2 7 1.7 2.2 4.6 2.7 7 1.2 6.4-4.3 13-8.3 19.8-12 1.7-.9 3.4-1.9 5.1-2.8.3-.1.6-.3.8-.4-1 .5.4-.2.5-.3l3-1.5c3.2-1.6 6.5-3.2 9.8-4.7 12.6-5.8 25.5-10.9 38.6-15.3 11-3.7 22.1-6.9 33.3-9.7 2.3-.6 4.6-1.1 6.9-1.6 1-.2 2-.5 3.1-.7-1.8.4.2 0 .6-.1.6-.1 1.2-.3 1.8-.4 3.4-.7 6.9-1.4 10.4-2 3.5-.6 6.9-1.2 10.4-1.7 2.6-.3 4.9-2.6 4.6-5.4-.4-2.8-2.7-5.1-5.4-4.8z" class="st3"/><path d="M646.7 96.2c-10.9 1.3-21.7 3.7-32.4 6.3-24.3 5.8-48.2 13.7-71 23.9-15.8 7.1-31.2 15.4-45.7 25-2.2 1.4-2.8 4.9-1.2 7 1.7 2.2 4.6 2.7 7 1.2 6.4-4.3 13-8.3 19.8-12 1.7-.9 3.4-1.9 5.1-2.8.3-.1.6-.3.8-.4-1 .5.4-.2.5-.3l3-1.5c3.2-1.6 6.5-3.2 9.8-4.7 12.6-5.8 25.5-10.9 38.6-15.3 11-3.7 22.1-6.9 33.3-9.7 2.3-.6 4.6-1.1 6.9-1.6 1-.2 2-.5 3.1-.7-1.8.4.2 0 .6-.1.6-.1 1.2-.3 1.8-.4 3.4-.7 6.9-1.4 10.4-2 3.5-.6 6.9-1.2 10.4-1.7 2.6-.3 4.9-2.6 4.6-5.4-.3-2.8-2.6-5.1-5.4-4.8z" class="st3"/><path d="M647.1 97.2c-10.9 1.3-21.7 3.7-32.4 6.3-24.3 5.8-48.2 13.7-71 23.9-15.8 7.1-31.2 15.4-45.7 25-2.2 1.4-2.8 4.9-1.2 7 1.7 2.2 4.6 2.7 7 1.2 6.4-4.3 13-8.3 19.8-12 1.7-.9 3.4-1.9 5.1-2.8.3-.1.6-.3.8-.4-1 .5.4-.2.5-.3l3-1.5c3.2-1.6 6.5-3.2 9.8-4.7 12.6-5.8 25.5-10.9 38.6-15.3 11-3.7 22.1-6.9 33.3-9.7 2.3-.6 4.6-1.1 6.9-1.6 1-.2 2-.5 3.1-.7-1.8.4.2 0 .6-.1.6-.1 1.2-.3 1.8-.4 3.4-.7 6.9-1.4 10.4-2 3.5-.6 6.9-1.2 10.4-1.7 2.6-.3 4.9-2.6 4.6-5.4-.4-2.8-2.7-5.2-5.4-4.8z" class="st3"/><path d="M988.3 674.9 764.5 60.1" class="st4"/></svg>